<mxfile host="Electron" agent="Mozilla/5.0 (Windows NT 10.0; Win64; x64) AppleWebKit/537.36 (KHTML, like Gecko) draw.io/26.2.2 Chrome/134.0.6998.178 Electron/35.1.2 Safari/537.36" version="26.2.2">
  <diagram name="Page-1" id="HUJMsCtopg-WY_ma1BH4">
    <mxGraphModel dx="5130" dy="2963" grid="1" gridSize="10" guides="1" tooltips="1" connect="1" arrows="1" fold="1" page="1" pageScale="1" pageWidth="827" pageHeight="1169" math="0" shadow="0">
      <root>
        <mxCell id="0" />
        <mxCell id="1" parent="0" />
        <mxCell id="C39UIkgcu5n6xboTU2DO-69" value="" style="rounded=1;whiteSpace=wrap;html=1;fillColor=#C9E2DF;strokeColor=#82b366;strokeWidth=5;dashed=1;dashPattern=1 2;fillOpacity=20;" vertex="1" parent="1">
          <mxGeometry x="2946" y="400" width="304" height="164" as="geometry" />
        </mxCell>
        <mxCell id="C39UIkgcu5n6xboTU2DO-70" value="" style="rounded=1;whiteSpace=wrap;html=1;fillColor=#FFCCCC;strokeColor=#FF6666;strokeWidth=5;dashed=1;dashPattern=1 2;fillOpacity=20;" vertex="1" parent="1">
          <mxGeometry x="2946" y="570" width="304" height="160" as="geometry" />
        </mxCell>
        <mxCell id="C39UIkgcu5n6xboTU2DO-71" value="" style="shape=image;verticalLabelPosition=bottom;labelBackgroundColor=default;verticalAlign=top;aspect=fixed;imageAspect=0;editableCssRules=.*;image=data:image/svg+xml,PHN2ZyB4bWxucz0iaHR0cDovL3d3dy53My5vcmcvMjAwMC9zdmciIGZpbGw9Im5vbmUiIHZpZXdCb3g9IjEgMSAyMiAyMiIgaGVpZ2h0PSI3MzMuMzMzMzMzMzMzMzMzNCIgd2lkdGg9IjczMy4zMzMzMzMzMzMzMzM0Ij48cGF0aCBzdHJva2Utd2lkdGg9IjIiIHN0cm9rZT0iI2RmNmMwYyIgZmlsbD0iI2ZiZjJlOSIgZD0iTTEyIDJDNy4yODYgMiA0LjkyOSAyIDMuNDY0IDMuNDY0IDIgNC45MyAyIDcuMjg2IDIgMTJzMCA3LjA3MSAxLjQ2NCA4LjUzNUM0LjkzIDIyIDcuMjg2IDIyIDEyIDIyczcuMDcxIDAgOC41MzUtMS40NjVDMjIgMTkuMDcyIDIyIDE2LjcxNCAyMiAxMnMwLTcuMDcxLTEuNDY1LTguNTM2QzE5LjA3MiAyIDE2LjcxNCAyIDEyIDJaIiBvcGFjaXR5PSIuNSIvPjxwYXRoIGZpbGw9IiNkZjZjMGMiIGQ9Ik0xMiA2LjI1YS43NS43NSAwIDAgMSAuNzUuNzV2NmEuNzUuNzUgMCAwIDEtMS41IDBWN2EuNzUuNzUgMCAwIDEgLjc1LS43NU0xMiAxN2ExIDEgMCAxIDAgMC0yIDEgMSAwIDAgMCAwIDIiLz48L3N2Zz4=;" vertex="1" parent="1">
          <mxGeometry x="2965.5" y="573" width="65" height="65" as="geometry" />
        </mxCell>
        <mxCell id="C39UIkgcu5n6xboTU2DO-72" value="" style="group" vertex="1" connectable="0" parent="1">
          <mxGeometry x="350" y="280" width="740" height="570" as="geometry" />
        </mxCell>
        <mxCell id="C39UIkgcu5n6xboTU2DO-73" value="" style="group" vertex="1" connectable="0" parent="C39UIkgcu5n6xboTU2DO-72">
          <mxGeometry width="740" height="570" as="geometry" />
        </mxCell>
        <mxCell id="C39UIkgcu5n6xboTU2DO-74" value="" style="rounded=1;whiteSpace=wrap;html=1;fillColor=#C9E2DF;fontSize=25;verticalAlign=top;fontStyle=1;fontFamily=Poppins;strokeColor=#00A99D;strokeWidth=3;fillOpacity=75;fontColor=#10739E;fontSource=https%3A%2F%2Ffonts.googleapis.com%2Fcss%3Ffamily%3DPoppins;" vertex="1" parent="C39UIkgcu5n6xboTU2DO-73">
          <mxGeometry y="37" width="740" height="533" as="geometry" />
        </mxCell>
        <mxCell id="C39UIkgcu5n6xboTU2DO-75" value="&lt;b&gt;Data Graph&lt;/b&gt;&lt;b style=&quot;font-size: 40px;&quot;&gt;&lt;font data-font-src=&quot;https://fonts.googleapis.com/css?family=Source+Sans+Pro&quot; style=&quot;font-size: 40px;&quot;&gt;&lt;/font&gt;&lt;/b&gt;" style="text;html=1;align=center;verticalAlign=middle;whiteSpace=wrap;rounded=1;fontColor=#EEEEEE;strokeWidth=2;fontSize=40;fontFamily=Poppins;strokeColor=none;fillOpacity=100;fillColor=#154481;fontSource=https%3A%2F%2Ffonts.googleapis.com%2Fcss%3Ffamily%3DPoppins;" vertex="1" parent="C39UIkgcu5n6xboTU2DO-73">
          <mxGeometry x="170.74999999999977" y="-10" width="398.5" height="100" as="geometry" />
        </mxCell>
        <mxCell id="C39UIkgcu5n6xboTU2DO-76" value="" style="ellipse;whiteSpace=wrap;html=1;fillColor=#00A99D;strokeColor=none;" vertex="1" parent="C39UIkgcu5n6xboTU2DO-73">
          <mxGeometry x="140" y="170" width="51" height="50" as="geometry" />
        </mxCell>
        <mxCell id="C39UIkgcu5n6xboTU2DO-77" value="" style="ellipse;whiteSpace=wrap;html=1;fillColor=#00A99D;strokeColor=none;" vertex="1" parent="C39UIkgcu5n6xboTU2DO-73">
          <mxGeometry x="310" y="360" width="51" height="50" as="geometry" />
        </mxCell>
        <mxCell id="C39UIkgcu5n6xboTU2DO-78" value="" style="ellipse;whiteSpace=wrap;html=1;fillColor=#00A99D;strokeColor=none;" vertex="1" parent="C39UIkgcu5n6xboTU2DO-73">
          <mxGeometry x="410" y="160" width="51" height="50" as="geometry" />
        </mxCell>
        <mxCell id="C39UIkgcu5n6xboTU2DO-79" value="" style="ellipse;whiteSpace=wrap;html=1;fillColor=#00A99D;strokeColor=none;" vertex="1" parent="C39UIkgcu5n6xboTU2DO-73">
          <mxGeometry x="250" y="229" width="51" height="50" as="geometry" />
        </mxCell>
        <mxCell id="C39UIkgcu5n6xboTU2DO-80" value="" style="ellipse;whiteSpace=wrap;html=1;fillColor=#00A99D;strokeColor=none;" vertex="1" parent="C39UIkgcu5n6xboTU2DO-73">
          <mxGeometry x="80" y="360" width="51" height="50" as="geometry" />
        </mxCell>
        <mxCell id="C39UIkgcu5n6xboTU2DO-81" value="" style="ellipse;whiteSpace=wrap;html=1;fillColor=#00A99D;strokeColor=none;" vertex="1" parent="C39UIkgcu5n6xboTU2DO-73">
          <mxGeometry x="540" y="420" width="51" height="50" as="geometry" />
        </mxCell>
        <mxCell id="C39UIkgcu5n6xboTU2DO-82" value="" style="ellipse;whiteSpace=wrap;html=1;fillColor=#00A99D;strokeColor=none;" vertex="1" parent="C39UIkgcu5n6xboTU2DO-73">
          <mxGeometry x="470" y="278.5" width="51" height="50" as="geometry" />
        </mxCell>
        <mxCell id="C39UIkgcu5n6xboTU2DO-83" value="" style="ellipse;whiteSpace=wrap;html=1;fillColor=#00A99D;strokeColor=none;" vertex="1" parent="C39UIkgcu5n6xboTU2DO-73">
          <mxGeometry x="630" y="160" width="51" height="50" as="geometry" />
        </mxCell>
        <mxCell id="C39UIkgcu5n6xboTU2DO-84" value="" style="ellipse;whiteSpace=wrap;html=1;fillColor=#00A99D;strokeColor=none;" vertex="1" parent="C39UIkgcu5n6xboTU2DO-73">
          <mxGeometry x="250" y="120" width="51" height="50" as="geometry" />
        </mxCell>
        <mxCell id="C39UIkgcu5n6xboTU2DO-85" value="" style="ellipse;whiteSpace=wrap;html=1;fillColor=#00A99D;strokeColor=none;" vertex="1" parent="C39UIkgcu5n6xboTU2DO-73">
          <mxGeometry x="191" y="470" width="51" height="50" as="geometry" />
        </mxCell>
        <mxCell id="C39UIkgcu5n6xboTU2DO-86" value="" style="ellipse;whiteSpace=wrap;html=1;fillColor=#00A99D;strokeColor=none;" vertex="1" parent="C39UIkgcu5n6xboTU2DO-73">
          <mxGeometry x="191" y="340" width="51" height="50" as="geometry" />
        </mxCell>
        <mxCell id="C39UIkgcu5n6xboTU2DO-87" value="" style="ellipse;whiteSpace=wrap;html=1;fillColor=#00A99D;strokeColor=none;" vertex="1" parent="C39UIkgcu5n6xboTU2DO-73">
          <mxGeometry x="397" y="450" width="51" height="50" as="geometry" />
        </mxCell>
        <mxCell id="C39UIkgcu5n6xboTU2DO-88" value="" style="ellipse;whiteSpace=wrap;html=1;fillColor=#00A99D;strokeColor=none;" vertex="1" parent="C39UIkgcu5n6xboTU2DO-73">
          <mxGeometry x="600" y="300" width="51" height="50" as="geometry" />
        </mxCell>
        <mxCell id="C39UIkgcu5n6xboTU2DO-89" style="rounded=1;orthogonalLoop=1;jettySize=auto;html=1;entryX=0;entryY=0.5;entryDx=0;entryDy=0;strokeColor=#154481;strokeWidth=15;endArrow=block;endFill=1;flowAnimation=1;startFill=0;shadow=0;jumpStyle=none;dashed=1;dashPattern=1 1;edgeStyle=orthogonalEdgeStyle;curved=1;endSize=7;startSize=7;opacity=90;" edge="1" parent="1" source="C39UIkgcu5n6xboTU2DO-74" target="C39UIkgcu5n6xboTU2DO-98">
          <mxGeometry relative="1" as="geometry" />
        </mxCell>
        <mxCell id="C39UIkgcu5n6xboTU2DO-90" value="" style="group" vertex="1" connectable="0" parent="1">
          <mxGeometry x="2350" y="450" width="320" height="240" as="geometry" />
        </mxCell>
        <mxCell id="C39UIkgcu5n6xboTU2DO-91" style="edgeStyle=orthogonalEdgeStyle;rounded=1;orthogonalLoop=1;jettySize=auto;html=1;shadow=0;dashed=1;dashPattern=1 1;opacity=90;strokeColor=#154481;strokeWidth=15;align=center;verticalAlign=middle;fontFamily=Helvetica;fontSize=11;fontColor=default;labelBackgroundColor=default;jumpStyle=none;startFill=0;startSize=7;endArrow=block;endFill=1;endSize=7;flowAnimation=1;curved=1;" edge="1" parent="C39UIkgcu5n6xboTU2DO-90" source="C39UIkgcu5n6xboTU2DO-92">
          <mxGeometry relative="1" as="geometry">
            <mxPoint x="540" y="120" as="targetPoint" />
          </mxGeometry>
        </mxCell>
        <mxCell id="C39UIkgcu5n6xboTU2DO-92" value="" style="rounded=1;whiteSpace=wrap;html=1;gradientColor=none;strokeColor=#154481;strokeWidth=5;fillColor=#00A99D;fillOpacity=20;dashed=1;container=0;" vertex="1" parent="C39UIkgcu5n6xboTU2DO-90">
          <mxGeometry width="320" height="240" as="geometry" />
        </mxCell>
        <mxCell id="C39UIkgcu5n6xboTU2DO-93" value="" style="ellipse;whiteSpace=wrap;html=1;fillColor=#00A99D;strokeColor=none;container=0;" vertex="1" parent="C39UIkgcu5n6xboTU2DO-90">
          <mxGeometry x="160" y="50" width="51" height="50" as="geometry" />
        </mxCell>
        <mxCell id="C39UIkgcu5n6xboTU2DO-94" value="" style="ellipse;whiteSpace=wrap;html=1;fillColor=#00A99D;strokeColor=none;container=0;" vertex="1" parent="C39UIkgcu5n6xboTU2DO-90">
          <mxGeometry x="247" y="140" width="51" height="50" as="geometry" />
        </mxCell>
        <mxCell id="C39UIkgcu5n6xboTU2DO-95" value="" style="ellipse;whiteSpace=wrap;html=1;fillColor=#00A99D;strokeColor=none;container=0;" vertex="1" parent="C39UIkgcu5n6xboTU2DO-90">
          <mxGeometry x="41" y="160" width="51" height="50" as="geometry" />
        </mxCell>
        <mxCell id="C39UIkgcu5n6xboTU2DO-96" value="" style="ellipse;whiteSpace=wrap;html=1;fillColor=#00A99D;strokeColor=none;container=0;" vertex="1" parent="C39UIkgcu5n6xboTU2DO-90">
          <mxGeometry x="41" y="30" width="51" height="50" as="geometry" />
        </mxCell>
        <mxCell id="C39UIkgcu5n6xboTU2DO-97" value="" style="group" vertex="1" connectable="0" parent="1">
          <mxGeometry x="1350" y="270" width="740" height="580" as="geometry" />
        </mxCell>
        <mxCell id="C39UIkgcu5n6xboTU2DO-98" value="" style="rounded=1;whiteSpace=wrap;html=1;fillColor=#C9E2DF;fontSize=25;verticalAlign=top;fontStyle=1;fontFamily=Poppins;strokeColor=#00A99D;strokeWidth=3;fillOpacity=75;fontColor=#10739E;fontSource=https%3A%2F%2Ffonts.googleapis.com%2Fcss%3Ffamily%3DPoppins;" vertex="1" parent="C39UIkgcu5n6xboTU2DO-97">
          <mxGeometry y="47" width="740" height="533" as="geometry" />
        </mxCell>
        <mxCell id="C39UIkgcu5n6xboTU2DO-99" value="&lt;b&gt;Validation nodes&lt;/b&gt;" style="text;html=1;align=center;verticalAlign=middle;whiteSpace=wrap;rounded=1;fontColor=#EEEEEE;strokeWidth=2;fontSize=40;fontFamily=Poppins;strokeColor=none;fillOpacity=100;fillColor=#154481;fontSource=https%3A%2F%2Ffonts.googleapis.com%2Fcss%3Ffamily%3DPoppins;" vertex="1" parent="C39UIkgcu5n6xboTU2DO-97">
          <mxGeometry x="170.75" width="398.5" height="100" as="geometry" />
        </mxCell>
        <mxCell id="C39UIkgcu5n6xboTU2DO-100" value="" style="ellipse;whiteSpace=wrap;html=1;fillColor=#00A99D;strokeColor=none;" vertex="1" parent="C39UIkgcu5n6xboTU2DO-97">
          <mxGeometry x="140" y="180" width="51" height="50" as="geometry" />
        </mxCell>
        <mxCell id="C39UIkgcu5n6xboTU2DO-101" value="" style="ellipse;whiteSpace=wrap;html=1;fillColor=#00A99D;strokeColor=none;" vertex="1" parent="C39UIkgcu5n6xboTU2DO-97">
          <mxGeometry x="410" y="170" width="51" height="50" as="geometry" />
        </mxCell>
        <mxCell id="C39UIkgcu5n6xboTU2DO-102" value="" style="ellipse;whiteSpace=wrap;html=1;fillColor=#00A99D;strokeColor=none;" vertex="1" parent="C39UIkgcu5n6xboTU2DO-97">
          <mxGeometry x="250" y="239" width="51" height="50" as="geometry" />
        </mxCell>
        <mxCell id="C39UIkgcu5n6xboTU2DO-103" value="" style="ellipse;whiteSpace=wrap;html=1;fillColor=#00A99D;strokeColor=none;" vertex="1" parent="C39UIkgcu5n6xboTU2DO-97">
          <mxGeometry x="80" y="370" width="51" height="50" as="geometry" />
        </mxCell>
        <mxCell id="C39UIkgcu5n6xboTU2DO-104" value="" style="ellipse;whiteSpace=wrap;html=1;fillColor=#00A99D;strokeColor=none;" vertex="1" parent="C39UIkgcu5n6xboTU2DO-97">
          <mxGeometry x="540" y="430" width="51" height="50" as="geometry" />
        </mxCell>
        <mxCell id="C39UIkgcu5n6xboTU2DO-105" value="" style="ellipse;whiteSpace=wrap;html=1;fillColor=#00A99D;strokeColor=none;" vertex="1" parent="C39UIkgcu5n6xboTU2DO-97">
          <mxGeometry x="470" y="288.5" width="51" height="50" as="geometry" />
        </mxCell>
        <mxCell id="C39UIkgcu5n6xboTU2DO-106" value="" style="ellipse;whiteSpace=wrap;html=1;fillColor=#00A99D;strokeColor=none;" vertex="1" parent="C39UIkgcu5n6xboTU2DO-97">
          <mxGeometry x="630" y="170" width="51" height="50" as="geometry" />
        </mxCell>
        <mxCell id="C39UIkgcu5n6xboTU2DO-107" value="" style="ellipse;whiteSpace=wrap;html=1;fillColor=#00A99D;strokeColor=none;" vertex="1" parent="C39UIkgcu5n6xboTU2DO-97">
          <mxGeometry x="250" y="130" width="51" height="50" as="geometry" />
        </mxCell>
        <mxCell id="C39UIkgcu5n6xboTU2DO-108" value="" style="ellipse;whiteSpace=wrap;html=1;fillColor=#00A99D;strokeColor=none;" vertex="1" parent="C39UIkgcu5n6xboTU2DO-97">
          <mxGeometry x="600" y="310" width="51" height="50" as="geometry" />
        </mxCell>
        <mxCell id="C39UIkgcu5n6xboTU2DO-109" value="" style="group;glass=0;" vertex="1" connectable="0" parent="C39UIkgcu5n6xboTU2DO-97">
          <mxGeometry x="150" y="320" width="320" height="240" as="geometry" />
        </mxCell>
        <mxCell id="C39UIkgcu5n6xboTU2DO-110" value="" style="rounded=1;whiteSpace=wrap;html=1;gradientColor=none;strokeColor=#154481;strokeWidth=5;fillColor=#00A99D;fillOpacity=20;dashed=1;" vertex="1" parent="C39UIkgcu5n6xboTU2DO-109">
          <mxGeometry width="320" height="240" as="geometry" />
        </mxCell>
        <mxCell id="C39UIkgcu5n6xboTU2DO-111" value="" style="ellipse;whiteSpace=wrap;html=1;fillColor=#00A99D;strokeColor=none;" vertex="1" parent="C39UIkgcu5n6xboTU2DO-109">
          <mxGeometry x="160" y="50" width="51" height="50" as="geometry" />
        </mxCell>
        <mxCell id="C39UIkgcu5n6xboTU2DO-112" value="" style="ellipse;whiteSpace=wrap;html=1;fillColor=#00A99D;strokeColor=none;" vertex="1" parent="C39UIkgcu5n6xboTU2DO-109">
          <mxGeometry x="247" y="140" width="51" height="50" as="geometry" />
        </mxCell>
        <mxCell id="C39UIkgcu5n6xboTU2DO-113" value="" style="ellipse;whiteSpace=wrap;html=1;fillColor=#00A99D;strokeColor=none;" vertex="1" parent="C39UIkgcu5n6xboTU2DO-109">
          <mxGeometry x="41" y="160" width="51" height="50" as="geometry" />
        </mxCell>
        <mxCell id="C39UIkgcu5n6xboTU2DO-114" value="" style="ellipse;whiteSpace=wrap;html=1;fillColor=#00A99D;strokeColor=none;" vertex="1" parent="C39UIkgcu5n6xboTU2DO-109">
          <mxGeometry x="41" y="30" width="51" height="50" as="geometry" />
        </mxCell>
        <mxCell id="C39UIkgcu5n6xboTU2DO-115" style="edgeStyle=orthogonalEdgeStyle;rounded=1;orthogonalLoop=1;jettySize=auto;html=1;entryX=0.005;entryY=0.552;entryDx=0;entryDy=0;entryPerimeter=0;shadow=0;dashed=1;dashPattern=1 1;opacity=90;strokeColor=#154481;strokeWidth=15;align=center;verticalAlign=middle;fontFamily=Helvetica;fontSize=11;fontColor=default;labelBackgroundColor=default;jumpStyle=none;startFill=0;startSize=7;endArrow=block;endFill=1;endSize=7;flowAnimation=1;curved=1;" edge="1" parent="1" source="C39UIkgcu5n6xboTU2DO-98" target="C39UIkgcu5n6xboTU2DO-92">
          <mxGeometry relative="1" as="geometry" />
        </mxCell>
        <mxCell id="C39UIkgcu5n6xboTU2DO-116" value="&lt;b&gt;SHACL constraints&lt;/b&gt;" style="text;html=1;align=center;verticalAlign=middle;whiteSpace=wrap;rounded=1;fontColor=#EEEEEE;strokeWidth=2;fontSize=40;fontFamily=Poppins;strokeColor=none;fillOpacity=100;fillColor=#154481;fontSource=https%3A%2F%2Ffonts.googleapis.com%2Fcss%3Ffamily%3DPoppins;" vertex="1" parent="1">
          <mxGeometry x="2590" y="270" width="398.5" height="100" as="geometry" />
        </mxCell>
        <mxCell id="C39UIkgcu5n6xboTU2DO-117" style="rounded=1;orthogonalLoop=1;jettySize=auto;html=1;entryX=0;entryY=0.5;entryDx=0;entryDy=0;shadow=0;dashed=1;dashPattern=1 1;opacity=90;strokeColor=#154481;strokeWidth=15;align=center;verticalAlign=middle;fontFamily=Helvetica;fontSize=11;fontColor=default;labelBackgroundColor=default;jumpStyle=none;startFill=0;startSize=7;endArrow=block;endFill=1;endSize=7;flowAnimation=1;edgeStyle=orthogonalEdgeStyle;curved=1;exitX=1;exitY=0.5;exitDx=0;exitDy=0;" edge="1" parent="1" source="C39UIkgcu5n6xboTU2DO-69" target="C39UIkgcu5n6xboTU2DO-118">
          <mxGeometry relative="1" as="geometry">
            <Array as="points">
              <mxPoint x="3250" y="480" />
              <mxPoint x="3280" y="480" />
              <mxPoint x="3280" y="425" />
            </Array>
          </mxGeometry>
        </mxCell>
        <mxCell id="C39UIkgcu5n6xboTU2DO-118" value="&lt;b&gt;Conforms to&lt;/b&gt;&lt;div&gt;&lt;b&gt;DCAT-AP-ES&lt;/b&gt;&lt;/div&gt;" style="text;html=1;align=center;verticalAlign=middle;whiteSpace=wrap;rounded=1;strokeWidth=6;fontSize=28;fontFamily=Poppins;strokeColor=#82B366;fillOpacity=100;fillColor=#d5e8d4;fontSource=https%3A%2F%2Ffonts.googleapis.com%2Fcss%3Ffamily%3DPoppins;fontColor=#82B366;" vertex="1" parent="1">
          <mxGeometry x="3390" y="330" width="280" height="190" as="geometry" />
        </mxCell>
        <mxCell id="C39UIkgcu5n6xboTU2DO-119" value="&lt;b&gt;&lt;font style=&quot;color: rgb(184, 84, 80);&quot;&gt;Violations &amp;amp;&lt;/font&gt;&lt;/b&gt;&lt;div&gt;&lt;b&gt;&lt;font style=&quot;color: rgb(223, 108, 12);&quot;&gt;recommendations&lt;/font&gt;&lt;/b&gt;&lt;/div&gt;" style="text;html=1;align=center;verticalAlign=middle;whiteSpace=wrap;rounded=1;strokeWidth=6;fontSize=28;fontFamily=Poppins;strokeColor=#b85450;fillOpacity=100;fillColor=#f8cecc;fontSource=https%3A%2F%2Ffonts.googleapis.com%2Fcss%3Ffamily%3DPoppins;" vertex="1" parent="1">
          <mxGeometry x="3390" y="600" width="280" height="190" as="geometry" />
        </mxCell>
        <mxCell id="C39UIkgcu5n6xboTU2DO-120" style="edgeStyle=orthogonalEdgeStyle;rounded=1;orthogonalLoop=1;jettySize=auto;html=1;entryX=0;entryY=0.5;entryDx=0;entryDy=0;shadow=0;dashed=1;dashPattern=1 1;opacity=90;strokeColor=#154481;strokeWidth=15;align=center;verticalAlign=middle;fontFamily=Helvetica;fontSize=11;fontColor=default;labelBackgroundColor=default;jumpStyle=none;startFill=0;startSize=7;endArrow=block;endFill=1;endSize=7;flowAnimation=1;curved=1;" edge="1" parent="1" source="C39UIkgcu5n6xboTU2DO-70" target="C39UIkgcu5n6xboTU2DO-119">
          <mxGeometry relative="1" as="geometry" />
        </mxCell>
        <mxCell id="C39UIkgcu5n6xboTU2DO-121" value="" style="shape=image;verticalLabelPosition=bottom;labelBackgroundColor=default;verticalAlign=top;aspect=fixed;imageAspect=0;editableCssRules=.*;image=data:image/svg+xml,PHN2ZyB4bWxucz0iaHR0cDovL3d3dy53My5vcmcvMjAwMC9zdmciIGZpbGw9Im5vbmUiIHZpZXdCb3g9IjEgMSAyMiAyMiIgaGVpZ2h0PSI3MzMuMzMzMzMzMzMzMzMzNCIgd2lkdGg9IjczMy4zMzMzMzMzMzMzMzM0Ij48cGF0aCBzdHJva2Utd2lkdGg9IjIiIHN0cm9rZT0iI2RmNmMwYyIgZmlsbD0iI2ZiZjJlOSIgZD0iTTEyIDJDNy4yODYgMiA0LjkyOSAyIDMuNDY0IDMuNDY0IDIgNC45MyAyIDcuMjg2IDIgMTJzMCA3LjA3MSAxLjQ2NCA4LjUzNUM0LjkzIDIyIDcuMjg2IDIyIDEyIDIyczcuMDcxIDAgOC41MzUtMS40NjVDMjIgMTkuMDcyIDIyIDE2LjcxNCAyMiAxMnMwLTcuMDcxLTEuNDY1LTguNTM2QzE5LjA3MiAyIDE2LjcxNCAyIDEyIDJaIiBvcGFjaXR5PSIuNSIvPjxwYXRoIGZpbGw9IiNkZjZjMGMiIGQ9Ik0xMiA2LjI1YS43NS43NSAwIDAgMSAuNzUuNzV2NmEuNzUuNzUgMCAwIDEtMS41IDBWN2EuNzUuNzUgMCAwIDEgLjc1LS43NU0xMiAxN2ExIDEgMCAxIDAgMC0yIDEgMSAwIDAgMCAwIDIiLz48L3N2Zz4=;" vertex="1" parent="1">
          <mxGeometry x="3065.5" y="655" width="65" height="65" as="geometry" />
        </mxCell>
        <mxCell id="C39UIkgcu5n6xboTU2DO-122" value="" style="shape=image;verticalLabelPosition=bottom;labelBackgroundColor=default;verticalAlign=top;aspect=fixed;imageAspect=0;editableCssRules=.*;image=data:image/svg+xml,PHN2ZyB4bWxucz0iaHR0cDovL3d3dy53My5vcmcvMjAwMC9zdmciIGZpbGw9Im5vbmUiIHZpZXdCb3g9IjEgMSAyMiAyMiIgaGVpZ2h0PSI3MzMuMzMzMzMzMzMzMzMzNCIgd2lkdGg9IjczMy4zMzMzMzMzMzMzMzM0Ij4mI3hhOyAgJiN4YTsgIDxwYXRoIHN0cm9rZS13aWR0aD0iMiIgc3Ryb2tlPSIjODJCMzY2IiBmaWxsPSIjRDVFOEQ0IiBkPSJNMTIgMjJDNy4yODU5NSAyMiA0LjkyODkzIDIyIDMuNDY0NDcgMjAuNTM1NUMyIDE5LjA3MTEgMiAxNi43MTQgMiAxMkMyIDcuMjg1OTUgMiA0LjkyODkzIDMuNDY0NDcgMy40NjQ0N0M0LjkyODkzIDIgNy4yODU5NSAyIDEyIDJDMTYuNzE0IDIgMTkuMDcxMSAyIDIwLjUzNTUgMy40NjQ0N0MyMiA0LjkyODkzIDIyIDcuMjg1OTUgMjIgMTJDMjIgMTYuNzE0IDIyIDE5LjA3MTEgMjAuNTM1NSAyMC41MzU1QzE5LjA3MTEgMjIgMTYuNzE0IDIyIDEyIDIyWiIgb3BhY2l0eT0iMC41Ii8+JiN4YTsgICYjeGE7ICAmI3hhOyAgPHBhdGggZmlsbD0iIzgyQjM2NiIgZD0iTTE2LjAzMDMgOC45Njk2N0MxNi4zMjMyIDkuMjYyNTYgMTYuMzIzMiA5LjczNzQ0IDE2LjAzMDMgMTAuMDMwM0wxMS4wMzAzIDE1LjAzMDNDMTAuNzM3NCAxNS4zMjMyIDEwLjI2MjYgMTUuMzIzMiA5Ljk2OTY3IDE1LjAzMDNMNy45Njk2NyAxMy4wMzAzQzcuNjc2NzggMTIuNzM3NCA3LjY3Njc4IDEyLjI2MjYgNy45Njk2NyAxMS45Njk3QzguMjYyNTYgMTEuNjc2OCA4LjczNzQ0IDExLjY3NjggOS4wMzAzMyAxMS45Njk3TDEwLjUgMTMuNDM5M0wxNC45Njk3IDguOTY5NjdDMTUuMjYyNiA4LjY3Njc4IDE1LjczNzQgOC42NzY3OCAxNi4wMzAzIDguOTY5NjdaIi8+JiN4YTs8L3N2Zz4=;container=0;" vertex="1" parent="1">
          <mxGeometry x="3065.5" y="410" width="65" height="65" as="geometry" />
        </mxCell>
        <mxCell id="C39UIkgcu5n6xboTU2DO-123" value="" style="ellipse;whiteSpace=wrap;html=1;fillColor=#00A99D;strokeColor=none;container=0;" vertex="1" parent="1">
          <mxGeometry x="2885.5" y="417.5" width="51" height="50" as="geometry" />
        </mxCell>
        <mxCell id="C39UIkgcu5n6xboTU2DO-124" value="" style="shape=image;verticalLabelPosition=bottom;labelBackgroundColor=default;verticalAlign=top;aspect=fixed;imageAspect=0;editableCssRules=.*;image=data:image/svg+xml,PHN2ZyB4bWxucz0iaHR0cDovL3d3dy53My5vcmcvMjAwMC9zdmciIGZpbGw9Im5vbmUiIHZpZXdCb3g9IjEgMSAyMiAyMiIgaGVpZ2h0PSI3MzMuMzMzMzMzMzMzMzMzNCIgd2lkdGg9IjczMy4zMzMzMzMzMzMzMzM0Ij4mI3hhOyAgJiN4YTsgIDxwYXRoIHN0cm9rZS13aWR0aD0iMiIgc3Ryb2tlPSIjODJCMzY2IiBmaWxsPSIjRDVFOEQ0IiBkPSJNMTIgMjJDNy4yODU5NSAyMiA0LjkyODkzIDIyIDMuNDY0NDcgMjAuNTM1NUMyIDE5LjA3MTEgMiAxNi43MTQgMiAxMkMyIDcuMjg1OTUgMiA0LjkyODkzIDMuNDY0NDcgMy40NjQ0N0M0LjkyODkzIDIgNy4yODU5NSAyIDEyIDJDMTYuNzE0IDIgMTkuMDcxMSAyIDIwLjUzNTUgMy40NjQ0N0MyMiA0LjkyODkzIDIyIDcuMjg1OTUgMjIgMTJDMjIgMTYuNzE0IDIyIDE5LjA3MTEgMjAuNTM1NSAyMC41MzU1QzE5LjA3MTEgMjIgMTYuNzE0IDIyIDEyIDIyWiIgb3BhY2l0eT0iMC41Ii8+JiN4YTsgICYjeGE7ICAmI3hhOyAgPHBhdGggZmlsbD0iIzgyQjM2NiIgZD0iTTE2LjAzMDMgOC45Njk2N0MxNi4zMjMyIDkuMjYyNTYgMTYuMzIzMiA5LjczNzQ0IDE2LjAzMDMgMTAuMDMwM0wxMS4wMzAzIDE1LjAzMDNDMTAuNzM3NCAxNS4zMjMyIDEwLjI2MjYgMTUuMzIzMiA5Ljk2OTY3IDE1LjAzMDNMNy45Njk2NyAxMy4wMzAzQzcuNjc2NzggMTIuNzM3NCA3LjY3Njc4IDEyLjI2MjYgNy45Njk2NyAxMS45Njk3QzguMjYyNTYgMTEuNjc2OCA4LjczNzQ0IDExLjY3NjggOS4wMzAzMyAxMS45Njk3TDEwLjUgMTMuNDM5M0wxNC45Njk3IDguOTY5NjdDMTUuMjYyNiA4LjY3Njc4IDE1LjczNzQgOC42NzY3OCAxNi4wMzAzIDguOTY5NjdaIi8+JiN4YTs8L3N2Zz4=;container=0;" vertex="1" parent="1">
          <mxGeometry x="2965.5" y="410" width="65" height="65" as="geometry" />
        </mxCell>
        <mxCell id="C39UIkgcu5n6xboTU2DO-125" value="" style="shape=image;verticalLabelPosition=bottom;labelBackgroundColor=default;verticalAlign=top;aspect=fixed;imageAspect=0;editableCssRules=.*;image=data:image/svg+xml,PHN2ZyB4bWxucz0iaHR0cDovL3d3dy53My5vcmcvMjAwMC9zdmciIGZpbGw9Im5vbmUiIHZpZXdCb3g9IjEgMSAyMiAyMiIgaGVpZ2h0PSI3MzMuMzMzMzMzMzMzMzMzNCIgd2lkdGg9IjczMy4zMzMzMzMzMzMzMzM0Ij4mI3hhOyAgJiN4YTsgIDxwYXRoIHN0cm9rZS13aWR0aD0iMiIgc3Ryb2tlPSIjODJCMzY2IiBmaWxsPSIjRDVFOEQ0IiBkPSJNMTIgMjJDNy4yODU5NSAyMiA0LjkyODkzIDIyIDMuNDY0NDcgMjAuNTM1NUMyIDE5LjA3MTEgMiAxNi43MTQgMiAxMkMyIDcuMjg1OTUgMiA0LjkyODkzIDMuNDY0NDcgMy40NjQ0N0M0LjkyODkzIDIgNy4yODU5NSAyIDEyIDJDMTYuNzE0IDIgMTkuMDcxMSAyIDIwLjUzNTUgMy40NjQ0N0MyMiA0LjkyODkzIDIyIDcuMjg1OTUgMjIgMTJDMjIgMTYuNzE0IDIyIDE5LjA3MTEgMjAuNTM1NSAyMC41MzU1QzE5LjA3MTEgMjIgMTYuNzE0IDIyIDEyIDIyWiIgb3BhY2l0eT0iMC41Ii8+JiN4YTsgICYjeGE7ICAmI3hhOyAgPHBhdGggZmlsbD0iIzgyQjM2NiIgZD0iTTE2LjAzMDMgOC45Njk2N0MxNi4zMjMyIDkuMjYyNTYgMTYuMzIzMiA5LjczNzQ0IDE2LjAzMDMgMTAuMDMwM0wxMS4wMzAzIDE1LjAzMDNDMTAuNzM3NCAxNS4zMjMyIDEwLjI2MjYgMTUuMzIzMiA5Ljk2OTY3IDE1LjAzMDNMNy45Njk2NyAxMy4wMzAzQzcuNjc2NzggMTIuNzM3NCA3LjY3Njc4IDEyLjI2MjYgNy45Njk2NyAxMS45Njk3QzguMjYyNTYgMTEuNjc2OCA4LjczNzQ0IDExLjY3NjggOS4wMzAzMyAxMS45Njk3TDEwLjUgMTMuNDM5M0wxNC45Njk3IDguOTY5NjdDMTUuMjYyNiA4LjY3Njc4IDE1LjczNzQgOC42NzY3OCAxNi4wMzAzIDguOTY5NjdaIi8+JiN4YTs8L3N2Zz4=;container=0;" vertex="1" parent="1">
          <mxGeometry x="3168" y="410" width="65" height="65" as="geometry" />
        </mxCell>
        <mxCell id="C39UIkgcu5n6xboTU2DO-126" value="" style="shape=image;verticalLabelPosition=bottom;labelBackgroundColor=default;verticalAlign=top;aspect=fixed;imageAspect=0;editableCssRules=.*;image=data:image/svg+xml,PHN2ZyB4bWxucz0iaHR0cDovL3d3dy53My5vcmcvMjAwMC9zdmciIGZpbGw9Im5vbmUiIHZpZXdCb3g9IjEgMSAyMiAyMiIgaGVpZ2h0PSI3MzMuMzMzMzMzMzMzMzMzNCIgd2lkdGg9IjczMy4zMzMzMzMzMzMzMzM0Ij4mI3hhOyAgJiN4YTsgIDxwYXRoIHN0cm9rZS13aWR0aD0iMiIgc3Ryb2tlPSIjODJCMzY2IiBmaWxsPSIjRDVFOEQ0IiBkPSJNMTIgMjJDNy4yODU5NSAyMiA0LjkyODkzIDIyIDMuNDY0NDcgMjAuNTM1NUMyIDE5LjA3MTEgMiAxNi43MTQgMiAxMkMyIDcuMjg1OTUgMiA0LjkyODkzIDMuNDY0NDcgMy40NjQ0N0M0LjkyODkzIDIgNy4yODU5NSAyIDEyIDJDMTYuNzE0IDIgMTkuMDcxMSAyIDIwLjUzNTUgMy40NjQ0N0MyMiA0LjkyODkzIDIyIDcuMjg1OTUgMjIgMTJDMjIgMTYuNzE0IDIyIDE5LjA3MTEgMjAuNTM1NSAyMC41MzU1QzE5LjA3MTEgMjIgMTYuNzE0IDIyIDEyIDIyWiIgb3BhY2l0eT0iMC41Ii8+JiN4YTsgICYjeGE7ICAmI3hhOyAgPHBhdGggZmlsbD0iIzgyQjM2NiIgZD0iTTE2LjAzMDMgOC45Njk2N0MxNi4zMjMyIDkuMjYyNTYgMTYuMzIzMiA5LjczNzQ0IDE2LjAzMDMgMTAuMDMwM0wxMS4wMzAzIDE1LjAzMDNDMTAuNzM3NCAxNS4zMjMyIDEwLjI2MjYgMTUuMzIzMiA5Ljk2OTY3IDE1LjAzMDNMNy45Njk2NyAxMy4wMzAzQzcuNjc2NzggMTIuNzM3NCA3LjY3Njc4IDEyLjI2MjYgNy45Njk2NyAxMS45Njk3QzguMjYyNTYgMTEuNjc2OCA4LjczNzQ0IDExLjY3NjggOS4wMzAzMyAxMS45Njk3TDEwLjUgMTMuNDM5M0wxNC45Njk3IDguOTY5NjdDMTUuMjYyNiA4LjY3Njc4IDE1LjczNzQgOC42NzY3OCAxNi4wMzAzIDguOTY5NjdaIi8+JiN4YTs8L3N2Zz4=;container=0;" vertex="1" parent="1">
          <mxGeometry x="3065.5" y="492" width="65" height="65" as="geometry" />
        </mxCell>
        <mxCell id="C39UIkgcu5n6xboTU2DO-127" value="" style="ellipse;whiteSpace=wrap;html=1;fillColor=#00A99D;strokeColor=none;container=0;" vertex="1" parent="1">
          <mxGeometry x="2885.5" y="499.5" width="51" height="50" as="geometry" />
        </mxCell>
        <mxCell id="C39UIkgcu5n6xboTU2DO-128" value="" style="shape=image;verticalLabelPosition=bottom;labelBackgroundColor=default;verticalAlign=top;aspect=fixed;imageAspect=0;editableCssRules=.*;image=data:image/svg+xml,PHN2ZyB4bWxucz0iaHR0cDovL3d3dy53My5vcmcvMjAwMC9zdmciIGZpbGw9Im5vbmUiIHZpZXdCb3g9IjEgMSAyMiAyMiIgaGVpZ2h0PSI3MzMuMzMzMzMzMzMzMzMzNCIgd2lkdGg9IjczMy4zMzMzMzMzMzMzMzM0Ij4mI3hhOyAgJiN4YTsgIDxwYXRoIHN0cm9rZS13aWR0aD0iMiIgc3Ryb2tlPSIjODJCMzY2IiBmaWxsPSIjRDVFOEQ0IiBkPSJNMTIgMjJDNy4yODU5NSAyMiA0LjkyODkzIDIyIDMuNDY0NDcgMjAuNTM1NUMyIDE5LjA3MTEgMiAxNi43MTQgMiAxMkMyIDcuMjg1OTUgMiA0LjkyODkzIDMuNDY0NDcgMy40NjQ0N0M0LjkyODkzIDIgNy4yODU5NSAyIDEyIDJDMTYuNzE0IDIgMTkuMDcxMSAyIDIwLjUzNTUgMy40NjQ0N0MyMiA0LjkyODkzIDIyIDcuMjg1OTUgMjIgMTJDMjIgMTYuNzE0IDIyIDE5LjA3MTEgMjAuNTM1NSAyMC41MzU1QzE5LjA3MTEgMjIgMTYuNzE0IDIyIDEyIDIyWiIgb3BhY2l0eT0iMC41Ii8+JiN4YTsgICYjeGE7ICAmI3hhOyAgPHBhdGggZmlsbD0iIzgyQjM2NiIgZD0iTTE2LjAzMDMgOC45Njk2N0MxNi4zMjMyIDkuMjYyNTYgMTYuMzIzMiA5LjczNzQ0IDE2LjAzMDMgMTAuMDMwM0wxMS4wMzAzIDE1LjAzMDNDMTAuNzM3NCAxNS4zMjMyIDEwLjI2MjYgMTUuMzIzMiA5Ljk2OTY3IDE1LjAzMDNMNy45Njk2NyAxMy4wMzAzQzcuNjc2NzggMTIuNzM3NCA3LjY3Njc4IDEyLjI2MjYgNy45Njk2NyAxMS45Njk3QzguMjYyNTYgMTEuNjc2OCA4LjczNzQ0IDExLjY3NjggOS4wMzAzMyAxMS45Njk3TDEwLjUgMTMuNDM5M0wxNC45Njk3IDguOTY5NjdDMTUuMjYyNiA4LjY3Njc4IDE1LjczNzQgOC42NzY3OCAxNi4wMzAzIDguOTY5NjdaIi8+JiN4YTs8L3N2Zz4=;container=0;" vertex="1" parent="1">
          <mxGeometry x="2965.5" y="492" width="65" height="65" as="geometry" />
        </mxCell>
        <mxCell id="C39UIkgcu5n6xboTU2DO-129" value="" style="shape=image;verticalLabelPosition=bottom;labelBackgroundColor=default;verticalAlign=top;aspect=fixed;imageAspect=0;editableCssRules=.*;image=data:image/svg+xml,PHN2ZyB4bWxucz0iaHR0cDovL3d3dy53My5vcmcvMjAwMC9zdmciIGZpbGw9Im5vbmUiIHZpZXdCb3g9IjEgMSAyMiAyMiIgaGVpZ2h0PSI3MzMuMzMzMzMzMzMzMzMzNCIgd2lkdGg9IjczMy4zMzMzMzMzMzMzMzM0Ij4mI3hhOyAgJiN4YTsgIDxwYXRoIHN0cm9rZS13aWR0aD0iMiIgc3Ryb2tlPSIjODJCMzY2IiBmaWxsPSIjRDVFOEQ0IiBkPSJNMTIgMjJDNy4yODU5NSAyMiA0LjkyODkzIDIyIDMuNDY0NDcgMjAuNTM1NUMyIDE5LjA3MTEgMiAxNi43MTQgMiAxMkMyIDcuMjg1OTUgMiA0LjkyODkzIDMuNDY0NDcgMy40NjQ0N0M0LjkyODkzIDIgNy4yODU5NSAyIDEyIDJDMTYuNzE0IDIgMTkuMDcxMSAyIDIwLjUzNTUgMy40NjQ0N0MyMiA0LjkyODkzIDIyIDcuMjg1OTUgMjIgMTJDMjIgMTYuNzE0IDIyIDE5LjA3MTEgMjAuNTM1NSAyMC41MzU1QzE5LjA3MTEgMjIgMTYuNzE0IDIyIDEyIDIyWiIgb3BhY2l0eT0iMC41Ii8+JiN4YTsgICYjeGE7ICAmI3hhOyAgPHBhdGggZmlsbD0iIzgyQjM2NiIgZD0iTTE2LjAzMDMgOC45Njk2N0MxNi4zMjMyIDkuMjYyNTYgMTYuMzIzMiA5LjczNzQ0IDE2LjAzMDMgMTAuMDMwM0wxMS4wMzAzIDE1LjAzMDNDMTAuNzM3NCAxNS4zMjMyIDEwLjI2MjYgMTUuMzIzMiA5Ljk2OTY3IDE1LjAzMDNMNy45Njk2NyAxMy4wMzAzQzcuNjc2NzggMTIuNzM3NCA3LjY3Njc4IDEyLjI2MjYgNy45Njk2NyAxMS45Njk3QzguMjYyNTYgMTEuNjc2OCA4LjczNzQ0IDExLjY3NjggOS4wMzAzMyAxMS45Njk3TDEwLjUgMTMuNDM5M0wxNC45Njk3IDguOTY5NjdDMTUuMjYyNiA4LjY3Njc4IDE1LjczNzQgOC42NzY3OCAxNi4wMzAzIDguOTY5NjdaIi8+JiN4YTs8L3N2Zz4=;container=0;" vertex="1" parent="1">
          <mxGeometry x="3168" y="492" width="65" height="65" as="geometry" />
        </mxCell>
        <mxCell id="C39UIkgcu5n6xboTU2DO-130" value="" style="ellipse;whiteSpace=wrap;html=1;fillColor=#00A99D;strokeColor=none;container=0;" vertex="1" parent="1">
          <mxGeometry x="2885.5" y="580.5" width="51" height="50" as="geometry" />
        </mxCell>
        <mxCell id="C39UIkgcu5n6xboTU2DO-131" value="" style="shape=image;verticalLabelPosition=bottom;labelBackgroundColor=default;verticalAlign=top;aspect=fixed;imageAspect=0;editableCssRules=.*;image=data:image/svg+xml,PHN2ZyB4bWxucz0iaHR0cDovL3d3dy53My5vcmcvMjAwMC9zdmciIGZpbGw9Im5vbmUiIHZpZXdCb3g9IjEgMSAyMiAyMiIgaGVpZ2h0PSI3MzMuMzMzMzMzMzMzMzMzNCIgd2lkdGg9IjczMy4zMzMzMzMzMzMzMzM0Ij48cGF0aCBzdHJva2Utd2lkdGg9IjIiIHN0cm9rZT0iI0I4NTQ1MCIgZmlsbD0iI0Y4Q0VDQyIgZD0iTTEyIDIyYy00LjcxNCAwLTcuMDcxIDAtOC41MzYtMS40NjVDMiAxOS4wNzIgMiAxNi43MTQgMiAxMnMwLTcuMDcxIDEuNDY0LTguNTM2QzQuOTMgMiA3LjI4NiAyIDEyIDJzNy4wNzEgMCA4LjUzNSAxLjQ2NEMyMiA0LjkzIDIyIDcuMjg2IDIyIDEyczAgNy4wNzEtMS40NjUgOC41MzVDMTkuMDcyIDIyIDE2LjcxNCAyMiAxMiAyMloiIG9wYWNpdHk9Ii41Ii8+LyZndDs8cGF0aCBmaWxsPSIjQjg1NDUwIiBkPSJNOC45NyA4Ljk3YS43NS43NSAwIDAgMSAxLjA2IDBMMTIgMTAuOTRsMS45Ny0xLjk3YS43NS43NSAwIDEgMSAxLjA2IDEuMDZMMTMuMDYgMTJsMS45NyAxLjk3YS43NS43NSAwIDEgMS0xLjA2IDEuMDZMMTIgMTMuMDZsLTEuOTcgMS45N2EuNzUuNzUgMCAwIDEtMS4wNi0xLjA2TDEwLjk0IDEybC0xLjk3LTEuOTdhLjc1Ljc1IDAgMCAxIDAtMS4wNiIvPjwvc3ZnPg==;container=0;" vertex="1" parent="1">
          <mxGeometry x="3065.5" y="573" width="65" height="65" as="geometry" />
        </mxCell>
        <mxCell id="C39UIkgcu5n6xboTU2DO-132" value="" style="shape=image;verticalLabelPosition=bottom;labelBackgroundColor=default;verticalAlign=top;aspect=fixed;imageAspect=0;editableCssRules=.*;image=data:image/svg+xml,PHN2ZyB4bWxucz0iaHR0cDovL3d3dy53My5vcmcvMjAwMC9zdmciIGZpbGw9Im5vbmUiIHZpZXdCb3g9IjEgMSAyMiAyMiIgaGVpZ2h0PSI3MzMuMzMzMzMzMzMzMzMzNCIgd2lkdGg9IjczMy4zMzMzMzMzMzMzMzM0Ij4mI3hhOyAgJiN4YTsgIDxwYXRoIHN0cm9rZS13aWR0aD0iMiIgc3Ryb2tlPSIjODJCMzY2IiBmaWxsPSIjRDVFOEQ0IiBkPSJNMTIgMjJDNy4yODU5NSAyMiA0LjkyODkzIDIyIDMuNDY0NDcgMjAuNTM1NUMyIDE5LjA3MTEgMiAxNi43MTQgMiAxMkMyIDcuMjg1OTUgMiA0LjkyODkzIDMuNDY0NDcgMy40NjQ0N0M0LjkyODkzIDIgNy4yODU5NSAyIDEyIDJDMTYuNzE0IDIgMTkuMDcxMSAyIDIwLjUzNTUgMy40NjQ0N0MyMiA0LjkyODkzIDIyIDcuMjg1OTUgMjIgMTJDMjIgMTYuNzE0IDIyIDE5LjA3MTEgMjAuNTM1NSAyMC41MzU1QzE5LjA3MTEgMjIgMTYuNzE0IDIyIDEyIDIyWiIgb3BhY2l0eT0iMC41Ii8+JiN4YTsgICYjeGE7ICAmI3hhOyAgPHBhdGggZmlsbD0iIzgyQjM2NiIgZD0iTTE2LjAzMDMgOC45Njk2N0MxNi4zMjMyIDkuMjYyNTYgMTYuMzIzMiA5LjczNzQ0IDE2LjAzMDMgMTAuMDMwM0wxMS4wMzAzIDE1LjAzMDNDMTAuNzM3NCAxNS4zMjMyIDEwLjI2MjYgMTUuMzIzMiA5Ljk2OTY3IDE1LjAzMDNMNy45Njk2NyAxMy4wMzAzQzcuNjc2NzggMTIuNzM3NCA3LjY3Njc4IDEyLjI2MjYgNy45Njk2NyAxMS45Njk3QzguMjYyNTYgMTEuNjc2OCA4LjczNzQ0IDExLjY3NjggOS4wMzAzMyAxMS45Njk3TDEwLjUgMTMuNDM5M0wxNC45Njk3IDguOTY5NjdDMTUuMjYyNiA4LjY3Njc4IDE1LjczNzQgOC42NzY3OCAxNi4wMzAzIDguOTY5NjdaIi8+JiN4YTs8L3N2Zz4=;container=0;" vertex="1" parent="1">
          <mxGeometry x="3168" y="573" width="65" height="65" as="geometry" />
        </mxCell>
        <mxCell id="C39UIkgcu5n6xboTU2DO-133" value="" style="ellipse;whiteSpace=wrap;html=1;fillColor=#00A99D;strokeColor=none;container=0;" vertex="1" parent="1">
          <mxGeometry x="2885.5" y="662.5" width="51" height="50" as="geometry" />
        </mxCell>
        <mxCell id="C39UIkgcu5n6xboTU2DO-134" value="" style="shape=image;verticalLabelPosition=bottom;labelBackgroundColor=default;verticalAlign=top;aspect=fixed;imageAspect=0;editableCssRules=.*;image=data:image/svg+xml,PHN2ZyB4bWxucz0iaHR0cDovL3d3dy53My5vcmcvMjAwMC9zdmciIGZpbGw9Im5vbmUiIHZpZXdCb3g9IjEgMSAyMiAyMiIgaGVpZ2h0PSI3MzMuMzMzMzMzMzMzMzMzNCIgd2lkdGg9IjczMy4zMzMzMzMzMzMzMzM0Ij4mI3hhOyAgJiN4YTsgIDxwYXRoIHN0cm9rZS13aWR0aD0iMiIgc3Ryb2tlPSIjODJCMzY2IiBmaWxsPSIjRDVFOEQ0IiBkPSJNMTIgMjJDNy4yODU5NSAyMiA0LjkyODkzIDIyIDMuNDY0NDcgMjAuNTM1NUMyIDE5LjA3MTEgMiAxNi43MTQgMiAxMkMyIDcuMjg1OTUgMiA0LjkyODkzIDMuNDY0NDcgMy40NjQ0N0M0LjkyODkzIDIgNy4yODU5NSAyIDEyIDJDMTYuNzE0IDIgMTkuMDcxMSAyIDIwLjUzNTUgMy40NjQ0N0MyMiA0LjkyODkzIDIyIDcuMjg1OTUgMjIgMTJDMjIgMTYuNzE0IDIyIDE5LjA3MTEgMjAuNTM1NSAyMC41MzU1QzE5LjA3MTEgMjIgMTYuNzE0IDIyIDEyIDIyWiIgb3BhY2l0eT0iMC41Ii8+JiN4YTsgICYjeGE7ICAmI3hhOyAgPHBhdGggZmlsbD0iIzgyQjM2NiIgZD0iTTE2LjAzMDMgOC45Njk2N0MxNi4zMjMyIDkuMjYyNTYgMTYuMzIzMiA5LjczNzQ0IDE2LjAzMDMgMTAuMDMwM0wxMS4wMzAzIDE1LjAzMDNDMTAuNzM3NCAxNS4zMjMyIDEwLjI2MjYgMTUuMzIzMiA5Ljk2OTY3IDE1LjAzMDNMNy45Njk2NyAxMy4wMzAzQzcuNjc2NzggMTIuNzM3NCA3LjY3Njc4IDEyLjI2MjYgNy45Njk2NyAxMS45Njk3QzguMjYyNTYgMTEuNjc2OCA4LjczNzQ0IDExLjY3NjggOS4wMzAzMyAxMS45Njk3TDEwLjUgMTMuNDM5M0wxNC45Njk3IDguOTY5NjdDMTUuMjYyNiA4LjY3Njc4IDE1LjczNzQgOC42NzY3OCAxNi4wMzAzIDguOTY5NjdaIi8+JiN4YTs8L3N2Zz4=;container=0;" vertex="1" parent="1">
          <mxGeometry x="2965.5" y="655" width="65" height="65" as="geometry" />
        </mxCell>
        <mxCell id="C39UIkgcu5n6xboTU2DO-135" value="" style="shape=image;verticalLabelPosition=bottom;labelBackgroundColor=default;verticalAlign=top;aspect=fixed;imageAspect=0;editableCssRules=.*;image=data:image/svg+xml,PHN2ZyB4bWxucz0iaHR0cDovL3d3dy53My5vcmcvMjAwMC9zdmciIGZpbGw9Im5vbmUiIHZpZXdCb3g9IjEgMSAyMiAyMiIgaGVpZ2h0PSI3MzMuMzMzMzMzMzMzMzMzNCIgd2lkdGg9IjczMy4zMzMzMzMzMzMzMzM0Ij48cGF0aCBzdHJva2Utd2lkdGg9IjIiIHN0cm9rZT0iI0I4NTQ1MCIgZmlsbD0iI0Y4Q0VDQyIgZD0iTTEyIDIyYy00LjcxNCAwLTcuMDcxIDAtOC41MzYtMS40NjVDMiAxOS4wNzIgMiAxNi43MTQgMiAxMnMwLTcuMDcxIDEuNDY0LTguNTM2QzQuOTMgMiA3LjI4NiAyIDEyIDJzNy4wNzEgMCA4LjUzNSAxLjQ2NEMyMiA0LjkzIDIyIDcuMjg2IDIyIDEyczAgNy4wNzEtMS40NjUgOC41MzVDMTkuMDcyIDIyIDE2LjcxNCAyMiAxMiAyMloiIG9wYWNpdHk9Ii41Ii8+LyZndDs8cGF0aCBmaWxsPSIjQjg1NDUwIiBkPSJNOC45NyA4Ljk3YS43NS43NSAwIDAgMSAxLjA2IDBMMTIgMTAuOTRsMS45Ny0xLjk3YS43NS43NSAwIDEgMSAxLjA2IDEuMDZMMTMuMDYgMTJsMS45NyAxLjk3YS43NS43NSAwIDEgMS0xLjA2IDEuMDZMMTIgMTMuMDZsLTEuOTcgMS45N2EuNzUuNzUgMCAwIDEtMS4wNi0xLjA2TDEwLjk0IDEybC0xLjk3LTEuOTdhLjc1Ljc1IDAgMCAxIDAtMS4wNiIvPjwvc3ZnPg==;container=0;" vertex="1" parent="1">
          <mxGeometry x="3168" y="655" width="65" height="65" as="geometry" />
        </mxCell>
      </root>
    </mxGraphModel>
  </diagram>
</mxfile>
